<mxfile modified="2024-07-18T11:01:33.882Z" host="app.diagrams.net" agent="Mozilla/5.0 (Windows NT 10.0; Win64; x64) AppleWebKit/537.36 (KHTML, like Gecko) Chrome/126.0.0.0 Safari/537.36" etag="37yOdjLx8WZQYAmjet3n" version="24.7.1" type="device">
  <diagram id="WI9T0HZ2pTsCkuznbFz-" name="Page-1">
    <mxGraphModel dx="1340" dy="723" grid="1" gridSize="10" guides="1" tooltips="1" connect="1" arrows="1" fold="1" page="1" pageScale="1" pageWidth="1169" pageHeight="827" math="0" shadow="0">
      <root>
        <mxCell id="0" />
        <mxCell id="1" parent="0" />
        <mxCell id="8D0YKuQ58AYBCIQPeCC7-4" value="Clients" style="text;html=1;align=center;verticalAlign=middle;resizable=0;points=[];autosize=1;strokeColor=none;fillColor=none;" vertex="1" parent="1">
          <mxGeometry x="49" y="120" width="60" height="30" as="geometry" />
        </mxCell>
        <mxCell id="8D0YKuQ58AYBCIQPeCC7-24" style="edgeStyle=orthogonalEdgeStyle;rounded=0;orthogonalLoop=1;jettySize=auto;html=1;" edge="1" parent="1" source="8D0YKuQ58AYBCIQPeCC7-5" target="8D0YKuQ58AYBCIQPeCC7-13">
          <mxGeometry relative="1" as="geometry" />
        </mxCell>
        <mxCell id="8D0YKuQ58AYBCIQPeCC7-25" value="HTTPS" style="edgeLabel;html=1;align=center;verticalAlign=middle;resizable=0;points=[];" vertex="1" connectable="0" parent="8D0YKuQ58AYBCIQPeCC7-24">
          <mxGeometry x="-0.4742" y="1" relative="1" as="geometry">
            <mxPoint as="offset" />
          </mxGeometry>
        </mxCell>
        <mxCell id="8D0YKuQ58AYBCIQPeCC7-5" value="" style="shape=image;verticalLabelPosition=bottom;labelBackgroundColor=#ffffff;verticalAlign=top;aspect=fixed;imageAspect=0;image=data:image/svg+xml,PHN2ZyB4bWxuczpkYz0iaHR0cDovL3B1cmwub3JnL2RjL2VsZW1lbnRzLzEuMS8iIHhtbG5zOmNjPSJodHRwOi8vY3JlYXRpdmVjb21tb25zLm9yZy9ucyMiIHhtbG5zOnJkZj0iaHR0cDovL3d3dy53My5vcmcvMTk5OS8wMi8yMi1yZGYtc3ludGF4LW5zIyIgeG1sbnM6c3ZnPSJodHRwOi8vd3d3LnczLm9yZy8yMDAwL3N2ZyIgeG1sbnM9Imh0dHA6Ly93d3cudzMub3JnLzIwMDAvc3ZnIiB4bWxuczpzb2RpcG9kaT0iaHR0cDovL3NvZGlwb2RpLnNvdXJjZWZvcmdlLm5ldC9EVEQvc29kaXBvZGktMC5kdGQiIHhtbG5zOmlua3NjYXBlPSJodHRwOi8vd3d3Lmlua3NjYXBlLm9yZy9uYW1lc3BhY2VzL2lua3NjYXBlIiB2ZXJzaW9uPSIxLjEiIGlkPSJzdmc0OTI1OSIgaW5rc2NhcGU6dmVyc2lvbj0iMC45Mi4zICgyNDA1NTQ2LCAyMDE4LTAzLTExKSIgc29kaXBvZGk6ZG9jbmFtZT0iYXBwbGljYXRpb25fZ2F0ZXdheS5zdmciIHg9IjBweCIgeT0iMHB4IiB2aWV3Qm94PSIwIDAgMTAwLjMxIDEwMC4xMSIgeG1sOnNwYWNlPSJwcmVzZXJ2ZSIgd2lkdGg9IjEwMC4zMSIgaGVpZ2h0PSIxMDAuMTEiPjxtZXRhZGF0YSBpZD0ibWV0YWRhdGExNjMzNSI+PHJkZjpSREY+PGNjOldvcmsgcmRmOmFib3V0PSIiPjxkYzpmb3JtYXQ+aW1hZ2Uvc3ZnK3htbDwvZGM6Zm9ybWF0PjxkYzp0eXBlIHJkZjpyZXNvdXJjZT0iaHR0cDovL3B1cmwub3JnL2RjL2RjbWl0eXBlL1N0aWxsSW1hZ2UiLz48ZGM6dGl0bGUvPjwvY2M6V29yaz48L3JkZjpSREY+PC9tZXRhZGF0YT48ZGVmcyBpZD0iZGVmczE2MzMzIi8+JiN4YTs8ZmlsdGVyIGlkPSJmaWx0ZXJfMiI+JiN4YTsJPGZlR2F1c3NpYW5CbHVyIGlkPSJmZUdhdXNzaWFuQmx1cjQ5MTg0IiBzdGREZXZpYXRpb249IjIiLz4mI3hhOzwvZmlsdGVyPiYjeGE7PHNvZGlwb2RpOm5hbWVkdmlldyBib3JkZXJjb2xvcj0iIzY2NjY2NiIgYm9yZGVyb3BhY2l0eT0iMSIgZml0LW1hcmdpbi1ib3R0b209IjAiIGZpdC1tYXJnaW4tbGVmdD0iMCIgZml0LW1hcmdpbi1yaWdodD0iMCIgZml0LW1hcmdpbi10b3A9IjAiIGdyaWR0b2xlcmFuY2U9IjEwIiBndWlkZXRvbGVyYW5jZT0iMTAiIGlkPSJuYW1lZHZpZXc0OTI2MSIgaW5rc2NhcGU6Y3VycmVudC1sYXllcj0ic3ZnNDkyNTkiIGlua3NjYXBlOmN4PSIzNy42OTE3NzEiIGlua3NjYXBlOmN5PSI0OC40MTY5MjYiIGlua3NjYXBlOnBhZ2VvcGFjaXR5PSIwIiBpbmtzY2FwZTpwYWdlc2hhZG93PSIyIiBpbmtzY2FwZTp3aW5kb3ctaGVpZ2h0PSIxMDE3IiBpbmtzY2FwZTp3aW5kb3ctbWF4aW1pemVkPSIxIiBpbmtzY2FwZTp3aW5kb3ctd2lkdGg9IjE5MjAiIGlua3NjYXBlOndpbmRvdy14PSItOCIgaW5rc2NhcGU6d2luZG93LXk9Ii04IiBpbmtzY2FwZTp6b29tPSI1LjIxOTMxOTgiIG9iamVjdHRvbGVyYW5jZT0iMTAiIHBhZ2Vjb2xvcj0iI2ZmZmZmZiIgc2hvd2dyaWQ9ImZhbHNlIj4mI3hhOwk8L3NvZGlwb2RpOm5hbWVkdmlldz4mI3hhOyYjeGE7PHBhdGggaWQ9InBhdGg0OTE5NyIgaW5rc2NhcGU6Y29ubmVjdG9yLWN1cnZhdHVyZT0iMCIgc3R5bGU9ImZpbGw6IzdmYmEwMCIgZD0ibSA1MC4wNSwxMDAuMTEgYyAtMi40LDAgLTQuOCwtMS4wMSAtNi42LC0yLjgxIEwgMi44LDU2LjY2IEMgMSw1NC44NiAwLDUyLjQ2IDAsNTAuMDUgYyAwLC0yLjQgMSwtNC44IDIuOCwtNi42IEwgNDMuNDUsMi44IEMgNDUuMjUsMSA0Ny42NSwwIDUwLjA1LDAgYyAyLjQxLDAgNC44MSwxIDYuNjEsMi44IEwgOTcuNSw0My42NSBjIDEuOCwxLjggMi44MSw0IDIuODEsNi42IDAsMi40MSAtMS4wMSw0LjgxIC0yLjgxLDYuNjEgTCA1Ni42Niw5Ny4zIGMgLTEuOCwxLjggLTQuMiwyLjgxIC02LjYxLDIuODEgeiIvPiYjeGE7JiN4YTs8cGF0aCBpZD0icGF0aDQ5MjA1IiBpbmtzY2FwZTpjb25uZWN0b3ItY3VydmF0dXJlPSIwIiBzdHlsZT0iZmlsbDojZmZmZmZmIiBkPSJtIDU5LjU0LDM3LjIgYyAtMi44LDIuMTQgLTYuMDksMy4xOSAtOS4zNywzLjE5IC00LjY0LDAgLTkuMjQsLTIuMDkgLTEyLjI3LC02LjA2IC01LjE5LC02Ljc3IC0zLjkxLC0xNi40NiAyLjg3LC0yMS42NSAyLjgsLTIuMTUgNi4xLC0zLjE4IDkuMzcsLTMuMTggNC42NSwwIDkuMjQsMi4wOSAxMi4yOCw2LjA2IDUuMTgsNi43OCAzLjg5LDE2LjQ2IC0yLjg4LDIxLjY0IHoiLz4mI3hhOyYjeGE7PHBhdGggaWQ9InBhdGg0OTIxMyIgaW5rc2NhcGU6Y29ubmVjdG9yLWN1cnZhdHVyZT0iMCIgc3R5bGU9ImZpbGw6I2ZmZmZmZjtmaWxsLW9wYWNpdHk6MC4xNSIgZD0iTSA1Ni42NiwyLjggQyA1NC44NiwxIDUyLjQ2LDAgNTAuMDUsMCBjIC0yLjQsMCAtNC44LDEgLTYuNiwyLjggTCAyLjgsNDMuNDUgQyAxLDQ1LjI1IDAsNDcuNjUgMCw1MC4wNSBjIDAsMi40MSAxLDQuODEgMi44LDYuNjEgTCAyNS44Myw3OS42OSA2OS4yNywxNS40MiBaIi8+JiN4YTsmI3hhOzxwYXRoIGlkPSJwYXRoNDkyMjEiIGlua3NjYXBlOmNvbm5lY3Rvci1jdXJ2YXR1cmU9IjAiIHN0eWxlPSJmaWxsOiNmZmZmZmYiIGQ9Ik0gNTAuMDUsOTEuMyA2My4yNyw3OC4wOCBIIDUzLjg2IFYgMzguMzQgaCAtNy44MSB2IDM5Ljc0IGggLTkuMjEgeiIvPiYjeGE7JiN4YTs8cGF0aCBpZD0icGF0aDQ5MjI5IiBpbmtzY2FwZTpjb25uZWN0b3ItY3VydmF0dXJlPSIwIiBzdHlsZT0iZmlsbDojZmZmZmZmIiBkPSJNIDc4Ljc0LDY3LjA0IFYgNDguMzUgbCAtNi41MSw2LjUxIC0xNi45MSwtMTYuOTEgLTUuNjYsNS42NyAxNi45MSwxNi45IC02LjUyLDYuNTIgeiIvPiYjeGE7JiN4YTs8cGF0aCBpZD0icGF0aDQ5MjM3IiBpbmtzY2FwZTpjb25uZWN0b3ItY3VydmF0dXJlPSIwIiBzdHlsZT0iZmlsbDojZmZmZmZmIiBkPSJNIDIxLjM5LDY3LjExIEggNDAuMDggTCAzMy41Niw2MC41OSA1MC45NSw0My4yMSA0NS4yOCwzNy41NSAyNy45LDU0LjkzIDIxLjM5LDQ4LjQyIFoiLz4mI3hhOyYjeGE7PHBhdGggaWQ9InBhdGg0OTI0NSIgaW5rc2NhcGU6Y29ubmVjdG9yLWN1cnZhdHVyZT0iMCIgc3R5bGU9ImZpbGw6IzU5YjRkOSIgZD0ibSA1OC4yOSwzNS41OCBjIC0yLjQyLDEuODUgLTUuMjgsMi43NiAtOC4xMiwyLjc2IC00LjAzLDAgLTguMDEsLTEuODEgLTEwLjY0LC01LjI2IC00LjUsLTUuODcgLTMuMzksLTE0LjI3IDIuNDksLTE4Ljc3IDIuNDMsLTEuODYgNS4yOSwtMi43NSA4LjEyLC0yLjc1IDQuMDMsMCA4LjAyLDEuOCAxMC42NSw1LjI1IDQuNSw1Ljg3IDMuMzgsMTQuMjcgLTIuNSwxOC43NyB6Ii8+JiN4YTsmI3hhOzxwYXRoIGlkPSJwYXRoNDkyNTMiIGlua3NjYXBlOmNvbm5lY3Rvci1jdXJ2YXR1cmU9IjAiIHN0eWxlPSJmaWxsOiNmZmZmZmYiIGQ9Im0gNTUuODMsMjcuMyBjIDAuOTgsMS4yNyAyLjc4LDEuNDkgNC4wNCwwLjU0IDAuMDcsLTAuMDUgMC4xMiwtMC4xMiAwLjE4LC0wLjE3IDEuMjksMC45MSAyLjE4LDEuNTEgMi42OSwxLjg1IDAuMTUsLTAuMzkgMC4yNSwtMC43NiAwLjM2LC0xLjE1IC0wLjUzLC0wLjM5IC0xLjI2LC0wLjk1IC0yLjMsLTEuNzkgMC4zNCwtMC45IDAuMjMsLTEuOTUgLTAuMzksLTIuNzggLTAuOSwtMS4xNSAtMi40OCwtMS40NSAtMy43MiwtMC43MyAtMS4zNiwtMS4yMyAtMi44NiwtMi42MyAtNC40NCwtNC4yIDQuOTEsLTIuNjQgOC40LC0yLjI1IDguNCwtMi4yNSAtMC41OSwtMC43NSAtMS4yNCwtMS40IC0xLjkzLC0xLjk4IC0yLjA3LC0wLjMyIC01LjI5LC0wLjI5IC04Ljk3LDEuNjcgViAxNi4zIGMgLTEuMjIsLTEuMjggLTIuNDcsLTIuNjUgLTMuNzQsLTQuMTMgLTAuNiwwLjIgLTEuMiwwLjQ0IC0xLjc3LDAuNzMgMC45MywxLjUzIDIuMiwzLjA3IDMuNjIsNC41OCAwLDAuMDEgMCwwLjAxIDAuMDEsMC4wMSAtMS4xOSwwLjgzIC0yLjUxLDEuOTQgLTMuNzIsMy4yMyAtMC4xNiwwLjE2IC0wLjMxLDAuMzMgLTAuNDUsMC40OSAtMC43MywtMC4xNSAtMS41LC0wLjEgLTIuMjEsMC4xNSAtMS4yMSwtMi42MSAtMS4xMiwtNC43MSAtMC45MiwtNS44IC0wLjUzLDAuNTUgLTEuMDIsMS4xMyAtMS40NSwxLjc1IC0wLjMxLDEuMyAtMC40LDMuMTYgMC41Myw1LjQxIC0xLjA4LDEuNDIgLTEuMTMsMy40MiAwLDQuOSAwLjEsMC4xMiAwLjIsMC4yNCAwLjMsMC4zNSAtMC40OSwxLjY4IC0wLjcxLDMuMyAtMC43OCw0LjY5IDAuMTIsMC4xNyAwLjEyLDAuMzEgMC4yNSwwLjQ4IDAuNjQsMC44MyAxLjQ1LDEuNTIgMi4yMywyLjE1IC0wLjEsLTEuNDcgMC4wMSwtMy42NSAwLjkyLC02LjA5IDAuNjMsMC4wNCAxLjI3LC0wLjA2IDEuODYsLTAuMzEgMC4zNSwwLjMxIDAuNywwLjYxIDEuMDksMC45MiAxLjMxLDEuMDQgMi42MiwxLjg1IDMuOSwyLjQ5IC0wLjA2LDAuNjUgMC4xLDEuMzIgMC41MiwxLjg4IDAuOSwxLjE3IDIuNTcsMS4zOSAzLjc0LDAuNDkgMC4yNCwtMC4xOCAwLjQzLC0wLjQxIDAuNTksLTAuNjUgMi4wOSwwLjQ3IDMuOTEsMC41NSA1LjI2LDAuNTUgMC4yLDAgMS4xNiwtMS4zMSAxLjcxLC0yLjExIC0wLjgyLDAuMTcgLTMuMjYsMC41IC02LjU5LC0wLjQ1IC0wLjA4LC0wLjM4IC0wLjIzLC0wLjc0IC0wLjQ4LC0xLjA3IC0wLjg0LC0xLjEgLTIuMzksLTEuMzUgLTMuNTQsLTAuNiAtMS4xNiwtMC42MyAtMi4zNywtMS40MiAtMy42MiwtMi40MSAtMC4yNiwtMC4yIC0wLjUsLTAuNCAtMC43MywtMC42IDAuNzYsLTEuMiAwLjg0LC0yLjc0IDAuMTcsLTQuMDQgMC4xNSwtMC4xNSAwLjMsLTAuMzEgMC40NiwtMC40NiAxLjI0LC0xLjE2IDIuNDEsLTIuMDggMy41LC0yLjgyIC0wLjA1LC0wLjA0IC0wLjA5LC0wLjA5IC0wLjEzLC0wLjEzIDAuMDQsMC4wNCAwLjA4LDAuMDggMC4xMywwLjEyIHYgMCBjIDEuNjcsMS41NSAzLjQ0LDMuMDIgNS4xMiw0LjMzIC0wLjQ0LDAuOTQgLTAuMzcsMi4wOCAwLjMsMi45NyB6Ii8+JiN4YTs8L3N2Zz4=;" vertex="1" parent="1">
          <mxGeometry x="206.99999999999994" y="136" width="100" height="100" as="geometry" />
        </mxCell>
        <mxCell id="8D0YKuQ58AYBCIQPeCC7-7" value="" style="sketch=0;pointerEvents=1;shadow=0;dashed=0;html=1;strokeColor=none;fillColor=#505050;labelPosition=center;verticalLabelPosition=bottom;verticalAlign=top;outlineConnect=0;align=center;shape=mxgraph.office.users.mobile_user;" vertex="1" parent="1">
          <mxGeometry x="50" y="150" width="59" height="56" as="geometry" />
        </mxCell>
        <mxCell id="8D0YKuQ58AYBCIQPeCC7-8" style="edgeStyle=orthogonalEdgeStyle;rounded=0;orthogonalLoop=1;jettySize=auto;html=1;entryX=0.049;entryY=0.419;entryDx=0;entryDy=0;entryPerimeter=0;" edge="1" parent="1" source="8D0YKuQ58AYBCIQPeCC7-7" target="8D0YKuQ58AYBCIQPeCC7-5">
          <mxGeometry relative="1" as="geometry" />
        </mxCell>
        <mxCell id="8D0YKuQ58AYBCIQPeCC7-9" value="HTTPS" style="edgeLabel;html=1;align=center;verticalAlign=middle;resizable=0;points=[];" vertex="1" connectable="0" parent="8D0YKuQ58AYBCIQPeCC7-8">
          <mxGeometry x="-0.3614" y="1" relative="1" as="geometry">
            <mxPoint x="-2" as="offset" />
          </mxGeometry>
        </mxCell>
        <mxCell id="8D0YKuQ58AYBCIQPeCC7-10" value="Azure App Gateway with Firewall" style="text;html=1;align=center;verticalAlign=middle;resizable=0;points=[];autosize=1;strokeColor=none;fillColor=none;" vertex="1" parent="1">
          <mxGeometry x="150" y="90" width="200" height="30" as="geometry" />
        </mxCell>
        <mxCell id="8D0YKuQ58AYBCIQPeCC7-11" value="Antigravity Resource Group&amp;nbsp;&lt;div&gt;&lt;br&gt;&lt;div&gt;&lt;br style=&quot;text-wrap: nowrap;&quot;&gt;&lt;/div&gt;&lt;/div&gt;" style="fontStyle=0;verticalAlign=top;align=center;spacingTop=-2;fillColor=none;rounded=0;whiteSpace=wrap;html=1;strokeColor=#919191;strokeWidth=2;dashed=1;container=1;collapsible=0;expand=0;recursiveResize=0;" vertex="1" parent="1">
          <mxGeometry x="390" y="80" width="390" height="332" as="geometry" />
        </mxCell>
        <mxCell id="8D0YKuQ58AYBCIQPeCC7-20" style="edgeStyle=orthogonalEdgeStyle;rounded=0;orthogonalLoop=1;jettySize=auto;html=1;entryX=0;entryY=0.25;entryDx=0;entryDy=0;" edge="1" parent="8D0YKuQ58AYBCIQPeCC7-11" source="8D0YKuQ58AYBCIQPeCC7-13" target="8D0YKuQ58AYBCIQPeCC7-18">
          <mxGeometry relative="1" as="geometry" />
        </mxCell>
        <mxCell id="8D0YKuQ58AYBCIQPeCC7-22" style="edgeStyle=orthogonalEdgeStyle;rounded=0;orthogonalLoop=1;jettySize=auto;html=1;" edge="1" parent="8D0YKuQ58AYBCIQPeCC7-11" source="8D0YKuQ58AYBCIQPeCC7-13" target="8D0YKuQ58AYBCIQPeCC7-15">
          <mxGeometry relative="1" as="geometry" />
        </mxCell>
        <mxCell id="8D0YKuQ58AYBCIQPeCC7-13" value="" style="image;aspect=fixed;html=1;points=[];align=center;fontSize=12;image=img/lib/azure2/app_services/App_Services.svg;" vertex="1" parent="8D0YKuQ58AYBCIQPeCC7-11">
          <mxGeometry x="80" y="73" width="64" height="64" as="geometry" />
        </mxCell>
        <mxCell id="8D0YKuQ58AYBCIQPeCC7-14" value="Antigravity App Service&lt;div&gt;&lt;br&gt;&lt;/div&gt;" style="text;html=1;align=center;verticalAlign=middle;resizable=0;points=[];autosize=1;strokeColor=none;fillColor=none;" vertex="1" parent="8D0YKuQ58AYBCIQPeCC7-11">
          <mxGeometry x="45" y="34" width="150" height="40" as="geometry" />
        </mxCell>
        <mxCell id="8D0YKuQ58AYBCIQPeCC7-15" value="" style="image;aspect=fixed;html=1;points=[];align=center;fontSize=12;image=img/lib/azure2/databases/SQL_Database.svg;" vertex="1" parent="8D0YKuQ58AYBCIQPeCC7-11">
          <mxGeometry x="270" y="73" width="48" height="64" as="geometry" />
        </mxCell>
        <mxCell id="8D0YKuQ58AYBCIQPeCC7-16" value="" style="verticalLabelPosition=bottom;html=1;verticalAlign=top;align=center;strokeColor=none;fillColor=#00BEF2;shape=mxgraph.azure.storage_blob;" vertex="1" parent="8D0YKuQ58AYBCIQPeCC7-11">
          <mxGeometry x="72" y="230" width="80" height="61" as="geometry" />
        </mxCell>
        <mxCell id="8D0YKuQ58AYBCIQPeCC7-18" value="" style="shape=image;verticalLabelPosition=bottom;labelBackgroundColor=#ffffff;verticalAlign=top;aspect=fixed;imageAspect=0;image=data:image/svg+xml,PHN2ZyB4bWxuczpjYz0iaHR0cDovL2NyZWF0aXZlY29tbW9ucy5vcmcvbnMjIiB4bWxuczpkYz0iaHR0cDovL3B1cmwub3JnL2RjL2VsZW1lbnRzLzEuMS8iIHhtbG5zOmlua3NjYXBlPSJodHRwOi8vd3d3Lmlua3NjYXBlLm9yZy9uYW1lc3BhY2VzL2lua3NjYXBlIiB4bWxuczpyZGY9Imh0dHA6Ly93d3cudzMub3JnLzE5OTkvMDIvMjItcmRmLXN5bnRheC1ucyMiIHhtbG5zOnNvZGlwb2RpPSJodHRwOi8vc29kaXBvZGkuc291cmNlZm9yZ2UubmV0L0RURC9zb2RpcG9kaS0wLmR0ZCIgeG1sbnM6c3ZnPSJodHRwOi8vd3d3LnczLm9yZy8yMDAwL3N2ZyIgeG1sbnM9Imh0dHA6Ly93d3cudzMub3JnLzIwMDAvc3ZnIiB4bWxuczp4bGluaz0iaHR0cDovL3d3dy53My5vcmcvMTk5OS94bGluayIgdmVyc2lvbj0iMS4xIiBpZD0ic3ZnNjE0NTEiIGlua3NjYXBlOnZlcnNpb249IjAuOTIuMyAoMjQwNTU0NiwgMjAxOC0wMy0xMSkiIHNvZGlwb2RpOmRvY25hbWU9ImF6dXJlX3F1ZXVlX3N0b3JhZ2Uuc3ZnIiB4PSIwcHgiIHk9IjBweCIgdmlld0JveD0iMCAwIDQ2Ljk1IDQwLjA5IiBzdHlsZT0iZW5hYmxlLWJhY2tncm91bmQ6bmV3IDAgMCA0Ni45NSA0MC4wOTsiIHhtbDpzcGFjZT0icHJlc2VydmUiPiYjeGE7PHNvZGlwb2RpOm5hbWVkdmlldyBib3JkZXJjb2xvcj0iIzY2NjY2NiIgYm9yZGVyb3BhY2l0eT0iMSIgZml0LW1hcmdpbi1ib3R0b209IjAiIGZpdC1tYXJnaW4tbGVmdD0iMCIgZml0LW1hcmdpbi1yaWdodD0iMCIgZml0LW1hcmdpbi10b3A9IjAiIGdyaWR0b2xlcmFuY2U9IjEwIiBndWlkZXRvbGVyYW5jZT0iMTAiIGlkPSJuYW1lZHZpZXc2MTQ1MyIgaW5rc2NhcGU6Y3VycmVudC1sYXllcj0ic3ZnNjE0NTEiIGlua3NjYXBlOmN4PSIzMy44MTQzNjkiIGlua3NjYXBlOmN5PSIyMC45MDgyNjciIGlua3NjYXBlOnBhZ2VvcGFjaXR5PSIwIiBpbmtzY2FwZTpwYWdlc2hhZG93PSIyIiBpbmtzY2FwZTp3aW5kb3ctaGVpZ2h0PSIxMDE3IiBpbmtzY2FwZTp3aW5kb3ctbWF4aW1pemVkPSIxIiBpbmtzY2FwZTp3aW5kb3ctd2lkdGg9IjE5MjAiIGlua3NjYXBlOndpbmRvdy14PSItOCIgaW5rc2NhcGU6d2luZG93LXk9Ii04IiBpbmtzY2FwZTp6b29tPSIxMS4wNTQ0MTUiIG9iamVjdHRvbGVyYW5jZT0iMTAiIHBhZ2Vjb2xvcj0iI2ZmZmZmZiIgc2hvd2dyaWQ9ImZhbHNlIj4mI3hhOwk8L3NvZGlwb2RpOm5hbWVkdmlldz4mI3hhOzxnIGlkPSJnNjE0NDkiIHRyYW5zZm9ybT0idHJhbnNsYXRlKC0wLjc1LC0wLjc0NjEwMzMpIj4mI3hhOwk8dGl0bGUgaWQ9InRpdGxlNjE0MTQiPlBhZ2UtMTwvdGl0bGU+JiN4YTsJPGcgaWQ9Imdyb3VwNTIyNC0xIiB0cmFuc2Zvcm09InRyYW5zbGF0ZSgwLjc1LC0wLjc1KSI+JiN4YTsJCTx0aXRsZSBpZD0idGl0bGU2MTQxNiI+QXp1cmUgUXVldWUgU3RvcmFnZTwvdGl0bGU+JiN4YTsJCTxnIGlkPSJzaGFwZTUyMjUtMiI+JiN4YTsJCQk8dGl0bGUgaWQ9InRpdGxlNjE0MTgiPlNoZWV0LjUyMjU8L3RpdGxlPiYjeGE7CQkJPHBhdGggaWQ9InBhdGg2MTQyMCIgaW5rc2NhcGU6Y29ubmVjdG9yLWN1cnZhdHVyZT0iMCIgc3R5bGU9ImZpbGw6I0EwQTFBMjsiIGQ9Ik0wLDM5LjgxYzAsMC45NCwwLjc1LDEuNzgsMS42OSwxLjc4aDQzLjQ3ICAgICBjMC45NCwwLDEuNzktMC43NSwxLjc5LTEuNzhWOC43M0gwVjM5LjgxeiIvPiYjeGE7CQk8L2c+JiN4YTsJCTxnIGlkPSJzaGFwZTUyMjYtNCIgdHJhbnNmb3JtPSJ0cmFuc2xhdGUoMCwtMzIuOTU3NykiPiYjeGE7CQkJPHRpdGxlIGlkPSJ0aXRsZTYxNDIzIj5TaGVldC41MjI2PC90aXRsZT4mI3hhOwkJCTxwYXRoIGlkPSJwYXRoNjE0MjUiIGlua3NjYXBlOmNvbm5lY3Rvci1jdXJ2YXR1cmU9IjAiIHN0eWxlPSJmaWxsOiM3QTdBN0E7IiBkPSJNNDUuMTYsMzQuNDZIMS42OUMwLjc1LDM0LjQ2LDAsMzUuMywwLDM2LjI0ICAgICB2NS4zNWg0Ni45NXYtNS4zNUM0Ni45NSwzNS4zLDQ2LjIsMzQuNDYsNDUuMTYsMzQuNDZ6Ii8+JiN4YTsJCTwvZz4mI3hhOwkJPGcgaWQ9InNoYXBlNTIyNy02IiB0cmFuc2Zvcm09InRyYW5zbGF0ZSgzLjQ3NDE4LC0zLjU2ODA4KSI+JiN4YTsJCQk8dGl0bGUgaWQ9InRpdGxlNjE0MjgiPlNoZWV0LjUyMjc8L3RpdGxlPiYjeGE7CQkJPHJlY3QgaWQ9InJlY3Q2MTQzMCIgeD0iMCIgeT0iMTUuNDkiIHN0eWxlPSJmaWxsOiM4MDQ5OTg7IiB3aWR0aD0iMTEuMjciIGhlaWdodD0iMjYuMSIvPiYjeGE7CQk8L2c+JiN4YTsJCTxnIGlkPSJzaGFwZTUyMjgtOCIgdHJhbnNmb3JtPSJ0cmFuc2xhdGUoMTcuODQwNCwtMy41NjgwOCkiPiYjeGE7CQkJPHRpdGxlIGlkPSJ0aXRsZTYxNDMzIj5TaGVldC41MjI4PC90aXRsZT4mI3hhOwkJCTxyZWN0IGlkPSJyZWN0NjE0MzUiIHg9IjAiIHk9IjE1LjQ5IiBzdHlsZT0iZmlsbDojODA0OTk4OyIgd2lkdGg9IjExLjI3IiBoZWlnaHQ9IjI2LjEiLz4mI3hhOwkJPC9nPiYjeGE7CQk8ZyBpZD0ic2hhcGU1MjI5LTEwIiB0cmFuc2Zvcm09InRyYW5zbGF0ZSgzMi4yMDY2LC0zLjU2ODA4KSI+JiN4YTsJCQk8dGl0bGUgaWQ9InRpdGxlNjE0MzgiPlNoZWV0LjUyMjk8L3RpdGxlPiYjeGE7CQkJPHJlY3QgaWQ9InJlY3Q2MTQ0MCIgeD0iMCIgeT0iMTUuNDkiIHN0eWxlPSJmaWxsOiM4MDQ5OTg7IiB3aWR0aD0iMTEuMjciIGhlaWdodD0iMjYuMSIvPiYjeGE7CQk8L2c+JiN4YTsJCTxnIGlkPSJzaGFwZTUyMzAtMTIiIHRyYW5zZm9ybT0idHJhbnNsYXRlKDAsLTAuMDkzODk2NykiPiYjeGE7CQkJPHRpdGxlIGlkPSJ0aXRsZTYxNDQzIj5TaGVldC41MjMwPC90aXRsZT4mI3hhOwkJCTxwYXRoIGlkPSJwYXRoNjE0NDUiIGlua3NjYXBlOmNvbm5lY3Rvci1jdXJ2YXR1cmU9IjAiIHN0eWxlPSJmaWxsOiNGRkZGRkY7ZmlsbC1vcGFjaXR5OjAuMjsiIGQ9Ik0xLjg4LDEuNTkgICAgIEMwLjg1LDEuNTksMCwyLjQ0LDAsMy40N3Y2Ljg2djMuMDl2MjYuM2MwLDEuMDMsMC44NSwxLjg3LDEuODgsMS44N2gyLjA2bDM3LTQwTDEuODgsMS41OXoiLz4mI3hhOwkJPC9nPiYjeGE7CTwvZz4mI3hhOzwvZz4mI3hhOzwvc3ZnPg==;" vertex="1" parent="8D0YKuQ58AYBCIQPeCC7-11">
          <mxGeometry x="270" y="240.0000000000009" width="47" height="40" as="geometry" />
        </mxCell>
        <mxCell id="8D0YKuQ58AYBCIQPeCC7-19" value="Azure Storage" style="text;html=1;align=center;verticalAlign=middle;resizable=0;points=[];autosize=1;strokeColor=none;fillColor=none;" vertex="1" parent="8D0YKuQ58AYBCIQPeCC7-11">
          <mxGeometry x="62" y="195" width="100" height="30" as="geometry" />
        </mxCell>
        <mxCell id="8D0YKuQ58AYBCIQPeCC7-21" style="edgeStyle=orthogonalEdgeStyle;rounded=0;orthogonalLoop=1;jettySize=auto;html=1;entryX=0.51;entryY=0.285;entryDx=0;entryDy=0;entryPerimeter=0;" edge="1" parent="8D0YKuQ58AYBCIQPeCC7-11" source="8D0YKuQ58AYBCIQPeCC7-13" target="8D0YKuQ58AYBCIQPeCC7-16">
          <mxGeometry relative="1" as="geometry" />
        </mxCell>
        <mxCell id="8D0YKuQ58AYBCIQPeCC7-23" value="Azure Queue" style="text;html=1;align=center;verticalAlign=middle;resizable=0;points=[];autosize=1;strokeColor=none;fillColor=none;" vertex="1" parent="8D0YKuQ58AYBCIQPeCC7-11">
          <mxGeometry x="248.5" y="195" width="90" height="30" as="geometry" />
        </mxCell>
      </root>
    </mxGraphModel>
  </diagram>
</mxfile>
